# xmcd
#
# Track frame offsets:
#	150
#	19378
#	34321
#	51272
#	68872
#	86174
#	103029
#	123131
#	141450
#	158329
#	175325
#
# Disc length: 2586 seconds
#
# Revision: 1
# Processed by: cddbd v1.5.2PL0 Copyright (c) Steve Scherf et al.
# Submitted via: audiograbber 1.83.01
#
DISCID=970a180b
DTITLE=Gloriana - A Thousand Miles Left Behind
DYEAR=2012
DGENRE=Country
TTITLE0=Gold Rush
TTITLE1=Sunset Lovin'
TTITLE2=Wanna Take You Home
TTITLE3=(Kissed You) Good Night
TTITLE4=Carolina Rose
TTITLE5=Go On ....Kiss Me
TTITLE6=Can't Shake You
TTITLE7=Soldier Song
TTITLE8=Turn My World Around
TTITLE9=Doing It Our Way
TTITLE10=Where My Heart Belongs
EXTD=
EXTT0=
EXTT1=
EXTT2=
EXTT3=
EXTT4=
EXTT5=
EXTT6=
EXTT7=
EXTT8=
EXTT9=
EXTT10=
PLAYORDER=
